<svg width="120" height="106" viewBox="0 0 120 106" fill="none" xmlns="http://www.w3.org/2000/svg">
<rect width="120" height="106" fill="white"/>
<path d="M30.8864 21.0884L2.11031 10.2973L31.1297 0L59.8151 10.4948L30.8862 21.0884H30.8864ZM32.7614 46.1442C38.9107 44.1959 45.1336 44.4375 50.8856 46.4142L62.0084 24.9016V13.7018L32.7614 24.412V46.1442V46.1442ZM83.2186 0.33164L83.2706 86.8554L120 71.3109L83.2186 0.331875V0.33164ZM54.3553 47.9027C61.7714 52.0146 67.3242 58.0132 68.1635 67.0301C67.583 73.8809 64.7576 80.1844 60.0579 84.9991C55.0275 90.1526 48.2351 93.1085 41.4227 93.1085C34.5609 93.1085 27.7324 90.6012 22.6877 86.2296C17.4975 81.732 14.6205 75.7031 14.5704 69.2374C14.8024 60.0359 18.9361 52.5441 28.9957 47.648V24.4008L0 13.5277V51.9668L15.7397 59.1551C12.6928 63.8892 10.9242 69.5243 10.9242 75.5728C10.9242 92.3494 24.5243 105.949 41.3009 105.949C55.4977 105.949 67.4184 96.21 70.7494 83.0487L79.0029 86.8559L78.9506 0.332109L54.3553 47.9032V47.9027Z" fill="url(#paint0_linear_603_1508)"/>
<defs>
<linearGradient id="paint0_linear_603_1508" x1="-45.4286" y1="45.6907" x2="154.542" y2="45.6907" gradientUnits="userSpaceOnUse">
<stop stop-color="#5DA9BB"/>
<stop offset="1" stop-color="#C5E87B"/>
</linearGradient>
</defs>
</svg>
